<svg width="324" height="426" viewBox="0 0 324 426" fill="none" xmlns="http://www.w3.org/2000/svg">
<path fill-rule="evenodd" clip-rule="evenodd" d="M168.065 75.2443C161.589 79.1475 155.226 81.0333 152.24 80.2635C144.75 78.333 144.062 50.9351 149.857 40.1339C155.651 29.3328 185.442 24.625 186.943 46.0255C187.464 53.4529 184.346 60.0814 179.738 65.4901L188 104H164L168.065 75.2443Z" fill="#B28B67"/>
<path fill-rule="evenodd" clip-rule="evenodd" d="M179 41C165.151 41.0992 155.515 40.5156 150 39C150.251 34.3062 155.131 29 168 29C182.318 29 190 37.3455 190 47C190 55.8205 184.322 66.5628 180 67C178.88 66.755 177.924 65.4059 176.973 63.547C178.753 62.681 180 60.6399 180 58C180 55.4624 177.761 53 175 53C173.993 53 173.055 53.3276 172.27 53.867C170.456 50.945 168.182 48.7625 165 49L167 43L179 42V41Z" fill="#191847"/>
<path fill-rule="evenodd" clip-rule="evenodd" d="M198 361C155.474 361 121 328.093 121 287.5C121 246.907 155.474 214 198 214C240.526 214 275 246.907 275 287.5C275 328.093 240.526 361 198 361Z" fill="#C5CFD6"/>
<path fill-rule="evenodd" clip-rule="evenodd" d="M78.289 283.58C74.5696 296.608 65.3035 321.302 52.4908 349.66L40.3154 346.107C50.9671 280.853 59.8319 237.651 64.9098 224.502C68.2647 215.814 93.6466 216.832 90.7267 234.313C89.5022 241.643 84.6574 261.273 78.289 283.58ZM128.333 237.361C148.188 241.475 189.356 256.017 201.112 260.664C208.5 263.584 203.737 273.488 197.434 272.622C196.367 272.475 192.59 272.052 186.956 271.422C168.858 269.397 131.588 265.228 103.321 261.16C88.4375 259.017 96.444 231.138 111.898 234.088C117.097 235.081 122.627 236.179 128.333 237.361Z" fill="#B28B67"/>
<path fill-rule="evenodd" clip-rule="evenodd" d="M64.1313 217.138C66.1613 210.514 158.438 187 158.438 187H166V194.047L102.413 226.416C102.497 227.461 102.446 228.565 102.241 229.729C102.7 253.726 92.4294 271.653 82.261 289.402C75.6115 301.008 69.0056 312.539 65.4723 325.641L42.1106 322.156C42.7911 320.416 43.8672 312.568 45.3385 301.839C49.0483 274.785 55.2706 229.409 64 217.403C64.0305 217.361 64.0615 217.32 64.093 217.278C64.1043 217.231 64.117 217.185 64.1313 217.138Z" fill="#1F28CF"/>
<path fill-rule="evenodd" clip-rule="evenodd" d="M160.717 245.64C166.535 244.476 171.893 243.436 176.477 242.632C206.091 237.438 214.726 221.586 209.62 187H155.058C146.145 189.56 99.826 208.985 75.7934 219.316C59.8874 226.154 64.9015 250.804 73.909 257.219C73.958 257.613 74.1201 257.88 74.4087 258C108.56 272.154 137.682 271.098 156.383 270.42C164.216 270.136 170.22 269.918 174 270.912L179.923 252.228L160.717 245.64Z" fill="#2B44FF"/>
<path fill-rule="evenodd" clip-rule="evenodd" d="M194.873 259.695C194.919 258.525 195.906 257.589 197.07 257.713C199.194 257.939 202.328 258.38 203.853 259.124C206.284 260.31 210.553 263.395 210.553 263.395C209.178 266.215 185.829 314.088 185.829 314.088C185.829 314.088 178.332 312.878 179.888 308.367C181.443 303.855 182.397 300.835 182.397 300.835L183.385 272.15C183.404 271.587 183.885 271.151 184.447 271.186L188.86 271.463C188.86 271.463 192.621 268.419 193.823 265.955C194.554 264.455 194.796 261.655 194.873 259.695Z" fill="#E4E4E4"/>
<path fill-rule="evenodd" clip-rule="evenodd" d="M55.5504 343.284C56.6221 342.813 57.8957 343.29 58.2949 344.391C59.023 346.398 60 349.409 60 351.106C60 353.811 59.0988 359 59.0988 359C55.9608 359 2.69695 359 2.69695 359C2.69695 359 0.498421 351.732 5.23518 351.152C9.97193 350.573 13.105 350.106 13.105 350.106L39.32 338.419C39.8346 338.189 40.437 338.43 40.6517 338.951L42.3368 343.039C42.3368 343.039 46.7218 345.085 49.4633 345.085C51.1323 345.085 53.7543 344.074 55.5504 343.284Z" fill="#E4E4E4"/>
<path fill-rule="evenodd" clip-rule="evenodd" d="M277.973 220.201C274.055 214.855 250.461 157.375 250.461 157.375L232.85 160.564C232.85 160.564 263.51 221.405 265.693 224.902C268.529 229.445 266.429 237.142 265.006 242.361C264.786 243.169 264.582 243.917 264.414 244.585C267.817 245.44 269.032 243.467 270.312 241.387C271.758 239.037 273.288 236.551 278.15 237.85C280.029 238.351 281.84 239.017 283.61 239.667C289.723 241.912 295.338 243.974 301.513 238.477C302.492 237.606 303.246 234.841 299.986 233.36C291.864 229.669 279.888 222.815 277.973 220.201ZM74.2122 190.555L106.11 167.131L113.162 184.562L81.5742 197.661C72.6407 208.155 67.6452 212.53 66.5879 210.785C65.6963 209.314 66.3932 207.937 67.0351 206.669C67.5352 205.68 68.0019 204.758 67.6583 203.909C66.8737 201.969 60.8727 202.174 55.1863 202.611C49.4998 203.048 51.157 200.518 52.5281 199.269C58.3327 195.794 65.5607 192.89 74.2122 190.555Z" fill="#B28B67"/>
<path fill-rule="evenodd" clip-rule="evenodd" d="M163.736 84.0415L174.431 88.4276C174.319 91.221 174.33 95.1947 174.342 99.7472C174.382 114.036 174.438 134.027 170.746 141.122C157.957 165.701 131.697 178.505 102.449 192.765C98.5286 194.676 94.5545 196.614 90.552 198.61L82.5048 182.182C83.437 181.521 84.3609 180.857 85.2768 180.188C84.0125 179.746 82.9582 178.745 82.4973 177.377C81.7038 175.022 82.9697 172.469 85.3249 171.676C90.1112 170.063 94.5755 169.383 98.6795 169.678C128.651 144.423 148.827 114.858 163.736 84.0415Z" fill="#69A1AC"/>
<path fill-rule="evenodd" clip-rule="evenodd" d="M212 195.91C212 195.91 164.843 201.09 137.764 195.91C135.527 195.482 135.625 185.84 136.663 183.207C152.815 142.202 163.44 112.184 163.44 83.7026C167.885 86.0248 179 84.3986 179 84.3986C198.914 113.75 208.067 147.427 212 195.91Z" fill="#191847"/>
<path fill-rule="evenodd" clip-rule="evenodd" d="M271.807 196.406C244.019 116.98 187.024 82 187.024 82H185.468H181.623H175.652C176.94 99.0357 170.887 123.826 163.865 152.584C152.636 198.577 138.929 254.719 148.809 305.518C160.958 308.231 175.234 306.379 190.688 304.374C212.992 301.479 237.751 298.267 262.117 308C261.178 287.65 249.296 265.124 237.468 242.699C229.971 228.484 222.495 214.31 217.841 200.758C218.909 199.753 219.466 198.247 219.192 196.696L218.671 193.741C218.318 191.739 216.692 190.281 214.772 190.053C214.437 188.553 214.147 187.063 213.908 185.583C212.687 178.025 213.467 170.555 214.237 163.169L214.237 163.169C214.661 159.114 215.081 155.084 215.167 151.079C228.56 163.01 244.772 183.813 258.452 219.871L277.339 214.313C276.617 211.63 275.86 208.991 275.071 206.396C277.257 205.191 279.835 199.47 277.993 198.516C276.048 197.508 273.984 196.807 271.807 196.406Z" fill="#89C5CC"/>
<path fill-rule="evenodd" clip-rule="evenodd" d="M182.894 83L188.053 98.8654L177.664 110.759L187.053 120.106L164.338 159L192.116 120.183L182.894 110.759L192.116 100.248L182.894 83Z" fill="black" fill-opacity="0.1"/>
<path fill-rule="evenodd" clip-rule="evenodd" d="M171 174C168.791 174 167 172.209 167 170C167 167.791 168.791 166 171 166C173.209 166 175 167.791 175 170C175 172.209 173.209 174 171 174ZM166 197C163.791 197 162 195.209 162 193C162 190.791 163.791 189 166 189C168.209 189 170 190.791 170 193C170 195.209 168.209 197 166 197ZM161 216C161 218.209 162.791 220 165 220C167.209 220 169 218.209 169 216C169 213.791 167.209 212 165 212C162.791 212 161 213.791 161 216Z" fill="black" fill-opacity="0.4"/>
</svg>
