<svg width="301" height="426" viewBox="0 0 301 426" fill="none" xmlns="http://www.w3.org/2000/svg">
<path fill-rule="evenodd" clip-rule="evenodd" d="M156.935 75.2443C163.411 79.1475 169.774 81.0333 172.76 80.2635C180.25 78.333 180.938 50.9351 175.143 40.1339C169.349 29.3328 139.558 24.625 138.057 46.0255C137.536 53.4529 140.654 60.0814 145.262 65.4901L137 104H161L156.935 75.2443Z" fill="#B28B67"/>
<path fill-rule="evenodd" clip-rule="evenodd" d="M171.965 36.443C172.5 36.6227 171.965 34.3226 170.687 33.4814C166.766 30.9018 155.095 27.0839 147.114 28.7407C141.767 29.8506 135.099 32.6364 130.829 36.1877C126.979 39.3892 123.476 45.0333 122.113 49.9919C120.682 55.1984 120.141 62.443 122.113 66.9855C124.462 72.3953 132.78 78.2257 133 79C133.251 79.8836 132.268 83.3357 131.548 86.9731C130.829 90.6105 131.156 99.8718 131.548 101.382C132.175 103.796 135.535 104.983 137 105.158C145.1 106.123 150.972 116.179 153.416 118.752C153.416 118.752 169.732 135.133 176.191 133C177.324 132.626 175.625 119.056 174.492 113.24C173.359 107.424 162.245 97.0443 161.533 93.6239C161.114 91.6089 161.044 88.1013 161 87.9414C159.952 80.7151 160.132 80.1277 158.603 77.1831C157.074 74.2384 155.889 74.0656 156.256 73.2079C158.052 69.0167 163.826 56.1932 165.137 52C166.698 47.0024 165.96 48.6439 167.57 43.6632C168.283 41.4577 169.19 35.5102 171.965 36.443Z" fill="#89C5CC"/>
<mask id="mask0" mask-type="alpha" maskUnits="userSpaceOnUse" x="120" y="28" width="57" height="106">
<path fill-rule="evenodd" clip-rule="evenodd" d="M171.965 36.443C172.5 36.6227 171.965 34.3226 170.687 33.4814C166.766 30.9018 155.095 27.0839 147.114 28.7407C141.767 29.8506 135.099 32.6364 130.829 36.1877C126.979 39.3892 123.476 45.0333 122.113 49.9919C120.682 55.1984 120.141 62.443 122.113 66.9855C124.462 72.3953 132.78 78.2257 133 79C133.251 79.8836 132.268 83.3357 131.548 86.9731C130.829 90.6105 131.156 99.8718 131.548 101.382C132.175 103.796 135.535 104.983 137 105.158C145.1 106.123 150.972 116.179 153.416 118.752C153.416 118.752 169.732 135.133 176.191 133C177.324 132.626 175.625 119.056 174.492 113.24C173.359 107.424 162.245 97.0443 161.533 93.6239C161.114 91.6089 161.044 88.1013 161 87.9414C159.952 80.7151 160.132 80.1277 158.603 77.1831C157.074 74.2384 155.889 74.0656 156.256 73.2079C158.052 69.0167 163.826 56.1932 165.137 52C166.698 47.0024 165.96 48.6439 167.57 43.6632C168.283 41.4577 169.19 35.5102 171.965 36.443Z" fill="white"/>
</mask>
<g mask="url(#mask0)">
<path fill-rule="evenodd" clip-rule="evenodd" d="M149.562 53.1421C149.185 45.537 149.562 42.566 151.316 37H150.234C148.524 39.2089 147.094 45.9652 148.701 53.1421H149.562ZM128.364 52.7838L128.364 52.7836L128.364 52.7834C128.175 52.3218 127.982 51.8491 127.782 51.3643L127.094 51.6948C129.264 59.6306 131.903 65.7569 140.965 70.8927L141.67 70.3992C133.1 64.3728 131.262 59.8756 128.364 52.7838ZM141.213 43.2923C141.304 43.9806 141.391 44.6509 141.476 45.3055V45.3055C142.778 55.3594 143.605 61.735 150.866 73.2976L150.044 73.5492C142.083 62.8261 140.821 54.0741 140.445 43.3541L141.213 43.2923ZM133.374 75.8804L132.669 76.7363C136.196 77.4744 138.594 80.0682 141.343 83.0416C144.251 86.1877 147.553 89.7588 153 92.0068L154.011 91.3941C148.066 88.3027 145.3 85.2305 142.885 82.5479C140.385 79.7707 138.26 77.4111 133.374 75.8804Z" fill="black" fill-opacity="0.2"/>
</g>
<path fill-rule="evenodd" clip-rule="evenodd" d="M98.4078 285.088C98.4078 285.088 134.392 295.153 160.5 295.153C186.608 295.153 209 279.653 209 279.653C209 279.653 173.786 269.323 151 269.323C128.214 269.323 98.4078 285.088 98.4078 285.088Z" fill="#1F28CF"/>
<path fill-rule="evenodd" clip-rule="evenodd" d="M181.267 304.824C181.036 304.477 180.84 304.098 180.685 303.689C177.479 295.208 126.117 203.726 121 187H178.826C182.717 199.717 200.227 279.52 202.691 295.442C210.467 320.557 226.475 401.895 228.519 407.53C230.669 413.458 218.572 419.633 215.349 412.346C210.22 400.75 197.999 368.665 192.557 349.074C187.456 330.708 183.302 314.185 181.267 304.824Z" fill="#997659"/>
<path fill-rule="evenodd" clip-rule="evenodd" d="M133.957 315.994C110.475 321.928 24.584 332.658 18.6898 334.341C12.6265 336.072 7.31009 323.574 14.8047 320.867C26.7299 316.559 59.5891 306.606 79.5118 302.544C95.5364 299.277 110.159 296.611 119.976 295.05C119.145 267.473 115.343 201.294 117.835 187H169C166.61 200.707 146.41 300.718 142.656 310.729C141.464 314.302 137.909 315.882 133.957 315.994Z" fill="#B28B67"/>
<path fill-rule="evenodd" clip-rule="evenodd" d="M16.931 320.074C17.2094 318.937 16.5181 317.765 15.3647 317.563C13.261 317.195 10.1268 316.756 8.45562 317.05C5.79179 317.52 0.837727 319.309 0.837727 319.309C1.38262 322.399 10.6318 374.854 10.6318 374.854C10.6318 374.854 18.1714 375.757 17.9196 370.991C17.6678 366.226 17.5837 363.059 17.5837 363.059L24.5407 335.213C24.6773 334.667 24.3356 334.115 23.7853 333.994L19.4672 333.044C19.4672 333.044 16.6909 329.081 16.2149 326.381C15.925 324.738 16.4645 321.98 16.931 320.074Z" fill="#E4E4E4"/>
<path fill-rule="evenodd" clip-rule="evenodd" d="M214.45 410.284C213.378 409.813 212.104 410.29 211.705 411.391C210.977 413.398 210 416.409 210 418.106C210 420.811 210.901 426 210.901 426C214.039 426 267.303 426 267.303 426C267.303 426 269.502 418.732 264.765 418.152C260.028 417.573 256.895 417.106 256.895 417.106L230.68 405.419C230.165 405.189 229.563 405.43 229.348 405.951L227.663 410.039C227.663 410.039 223.278 412.085 220.537 412.085C218.868 412.085 216.246 411.074 214.45 410.284Z" fill="#E4E4E4"/>
<path fill-rule="evenodd" clip-rule="evenodd" d="M118 187C118 187 151.82 177.324 182 187C189 218.937 206.009 231.613 209 280.579C175 297.473 133 268.53 98 285.005C88 261.961 102 206.464 118 187Z" fill="#2B44FF"/>
<path fill-rule="evenodd" clip-rule="evenodd" d="M47.0271 220.201C50.9454 214.855 74.5392 157.375 74.5392 157.375L92.1504 160.564C92.1504 160.564 61.4904 221.405 59.3073 224.902C56.4714 229.445 58.5707 237.142 59.9942 242.361C60.2144 243.169 60.4185 243.917 60.5855 244.585C57.1827 245.44 55.9684 243.467 54.6882 241.387C53.2423 239.037 51.7123 236.551 46.8497 237.85C44.9711 238.351 43.1598 239.017 41.3902 239.667C35.2775 241.912 29.662 243.974 23.487 238.477C22.508 237.606 21.7542 234.841 25.0143 233.36C33.1364 229.669 45.1115 222.815 47.0271 220.201ZM250.788 190.555L218.89 167.131L211.838 184.562L243.426 197.661C252.359 208.155 257.355 212.53 258.412 210.785C259.304 209.314 258.607 207.937 257.965 206.669C257.465 205.68 256.998 204.758 257.342 203.909C258.126 201.969 264.127 202.174 269.814 202.611C275.5 203.048 273.843 200.518 272.472 199.269C266.667 195.794 259.439 192.89 250.788 190.555Z" fill="#B28B67"/>
<path fill-rule="evenodd" clip-rule="evenodd" d="M161.264 84.0414L150.569 88.4276C150.681 91.2209 150.67 95.1946 150.658 99.7472C150.618 114.036 150.562 134.027 154.254 141.122C167.043 165.701 193.303 178.505 222.551 192.765C226.471 194.676 230.445 196.614 234.448 198.61L242.495 182.182C241.563 181.521 240.639 180.857 239.723 180.188C240.988 179.745 242.042 178.745 242.503 177.377C243.296 175.022 242.03 172.469 239.675 171.676C234.889 170.063 230.425 169.383 226.32 169.678C196.349 144.423 176.173 114.858 161.264 84.0414Z" fill="#69A1AC"/>
<path fill-rule="evenodd" clip-rule="evenodd" d="M113 195.91C113 195.91 160.157 201.09 187.236 195.91C189.473 195.482 189.375 185.84 188.337 183.207C172.185 142.202 161.56 112.184 161.56 83.7026C157.115 86.0248 146 84.3986 146 84.3986C126.086 113.75 116.933 147.427 113 195.91Z" fill="#191847"/>
<path fill-rule="evenodd" clip-rule="evenodd" d="M53.1926 196.406C80.9812 116.98 137.976 82 137.976 82H139.532H143.377H149.348C148.06 99.0357 154.113 123.826 161.135 152.584C172.364 198.577 186.071 254.719 176.191 305.518C164.042 308.231 149.766 306.379 134.312 304.374C112.008 301.479 87.2489 298.267 62.8828 308C63.8222 287.65 75.7037 265.124 87.5315 242.699C95.0289 228.484 102.505 214.31 107.159 200.758C106.091 199.753 105.534 198.247 105.808 196.696L106.329 193.741C106.682 191.739 108.308 190.281 110.228 190.053C110.563 188.553 110.853 187.063 111.092 185.583C112.313 178.025 111.533 170.555 110.763 163.169L110.762 163.169C110.339 159.114 109.919 155.084 109.833 151.079C96.4404 163.01 80.228 183.813 66.5479 219.871L47.6612 214.313C48.3834 211.63 49.1401 208.991 49.9288 206.396C47.7428 205.191 45.1654 199.47 47.0066 198.516C48.952 197.508 51.0161 196.807 53.1926 196.406Z" fill="#89C5CC"/>
<path fill-rule="evenodd" clip-rule="evenodd" d="M142.106 83L136.947 98.8654L147.336 110.759L137.947 120.106L160.662 159L132.884 120.183L142.106 110.759L132.884 100.248L142.106 83Z" fill="black" fill-opacity="0.1"/>
<path fill-rule="evenodd" clip-rule="evenodd" d="M154 174C156.209 174 158 172.209 158 170C158 167.791 156.209 166 154 166C151.791 166 150 167.791 150 170C150 172.209 151.791 174 154 174ZM159 197C161.209 197 163 195.209 163 193C163 190.791 161.209 189 159 189C156.791 189 155 190.791 155 193C155 195.209 156.791 197 159 197ZM164 216C164 218.209 162.209 220 160 220C157.791 220 156 218.209 156 216C156 213.791 157.791 212 160 212C162.209 212 164 213.791 164 216Z" fill="black" fill-opacity="0.4"/>
</svg>
