<svg width="300" height="423" viewBox="0 0 300 423" fill="none" xmlns="http://www.w3.org/2000/svg">
<path fill-rule="evenodd" clip-rule="evenodd" d="M154.935 75.2443C161.411 79.1475 167.774 81.0333 170.76 80.2635C178.25 78.333 178.938 50.9351 173.143 40.1339C167.349 29.3328 137.558 24.625 136.057 46.0255C135.536 53.4529 138.654 60.0814 143.262 65.4901L135 104H159L154.935 75.2443Z" fill="#B28B67"/>
<path fill-rule="evenodd" clip-rule="evenodd" d="M163.663 28.37C160.384 27.37 155.623 27.0308 153.621 27.2603C154.76 24.5308 155.212 21.4899 154.844 18.5291C154.485 15.6521 153.2 13.2024 152.011 10.6354C151.463 9.45217 150.842 8.2754 149.916 7.37038C148.972 6.44834 147.778 5.83973 146.526 5.54937C145.245 5.25215 143.905 5.2769 142.622 5.54663C142.054 5.66593 141.545 5.9255 140.988 6.06979C140.418 6.21763 140.141 5.86077 139.727 5.50213C138.73 4.63797 137.268 4.21138 136.006 4.0587C134.59 3.88748 133.121 4.10102 131.771 4.56639C130.457 5.01943 129.195 5.75509 128.245 6.82681C127.822 7.30387 127.438 7.84687 127.188 8.44638C127.086 8.6924 127.069 8.83815 126.823 8.92827C126.596 9.0117 126.331 9.01412 126.096 9.09353C123.831 9.86095 121.893 11.6117 120.838 13.8595C120.223 15.1709 119.932 17.4798 120.011 20.0677C120.091 22.6556 122.428 29.4081 124.613 31.8711C126.564 34.0695 129.432 35.5203 132.199 36.1553C130.362 38.2548 129.14 40.8784 128.235 43.5467C127.253 46.445 126.645 49.4566 126.421 52.5251C126.208 55.4405 126.188 58.5235 126.871 61.3767C127.511 64.0448 128.878 66.2337 131.161 67.6223C132.206 68.2584 133.331 68.7363 134.463 69.173C135.578 69.6034 136.696 70.0219 137.864 70.2634C140.075 70.7203 142.622 70.6418 144.325 68.8822C144.939 68.2479 145.614 67.4508 146.061 66.6759C146.222 66.3972 146.32 66.215 146.124 65.9426C145.89 65.6164 145.511 65.3664 145.21 65.1112C143.493 63.6561 142.43 61.7135 142.163 59.4049C141.891 57.0626 142.52 54.0393 144.797 53.017C147.608 51.7552 150.704 53.2036 153.203 54.5537C154.265 50.806 156.445 47.4315 159.863 45.7124C163.645 43.8105 167.985 43.5879 171.871 41.9561C172.884 41.5309 173.915 41.0482 174.661 40.1818C174.973 39.8197 175.338 39.35 175.463 38.871C175.626 38.242 175.22 37.7145 174.907 37.2241C173.245 34.6236 166.943 29.37 163.663 28.37Z" fill="#191847"/>
<path fill-rule="evenodd" clip-rule="evenodd" d="M128 184L164.631 310.227L181.86 405H199.153L181.891 184H128Z" fill="#997659"/>
<path fill-rule="evenodd" clip-rule="evenodd" d="M111.538 184C114.094 249.574 113.086 285.34 112.514 291.298C111.942 297.256 108.694 337.156 86.5637 407H104.55C133.858 339.997 144.089 300.096 147.45 291.298C150.812 282.5 160.739 246.734 175.233 184H111.538Z" fill="#B28B67"/>
<path fill-rule="evenodd" clip-rule="evenodd" d="M127.214 184C136.742 227.435 153.222 296.768 176.653 392H201.946C203.814 294.254 195.867 229.92 182.105 184H127.214Z" fill="#69A1AC"/>
<path fill-rule="evenodd" clip-rule="evenodd" d="M111.41 184C113.913 249.574 107.426 314.177 87.3305 393.021H114.317C143.679 327.018 164.723 262.734 179.106 184H111.41Z" fill="#89C5CC"/>
<path fill-rule="evenodd" clip-rule="evenodd" d="M84 420L84.9149 405.249C84.9546 404.609 85.5774 404.171 86.2047 404.304C94.8719 406.146 106.826 402 106.826 402C118.857 410.522 136.201 414.433 142.308 415.604C143.49 415.831 144.248 417.023 143.92 418.18L142.553 423H106.826H85.9848L84 420Z" fill="#191847"/>
<path fill-rule="evenodd" clip-rule="evenodd" d="M178 420L178.915 405.249C178.955 404.609 179.577 404.171 180.205 404.304C188.872 406.146 200.826 402 200.826 402C212.857 410.522 230.201 414.433 236.308 415.604C237.49 415.831 238.248 417.023 237.92 418.18L236.553 423H200.826H179.985L178 420Z" fill="#191847"/>
<path fill-rule="evenodd" clip-rule="evenodd" d="M213.348 105.69L178.638 124.7L191.456 138.458L216.677 115.365C229.963 111.704 236.039 109.025 234.905 107.329C233.948 105.9 232.406 105.949 230.985 105.995C229.878 106.031 228.845 106.064 228.22 105.394C226.794 103.863 229.515 98.5104 232.315 93.5415C235.114 88.5726 232.121 89.0052 230.409 89.7198C224.807 93.5122 219.12 98.8355 213.348 105.69ZM248.247 132.364L233 140.74L233.868 156.04C233.868 156.04 243.743 148.913 252.238 146.544C263.071 143.524 267.453 141.218 272.746 134.473C275.578 130.864 277.982 123.61 275.286 121.248C274.252 120.341 270.399 122.482 266.468 124.667C263.472 126.332 260.43 128.022 258.556 128.408C256.034 128.927 256.329 125.657 256.565 123.045C256.734 121.17 256.873 119.633 255.918 120.077C251.455 120.154 248.247 132.364 248.247 132.364Z" fill="#997659"/>
<path fill-rule="evenodd" clip-rule="evenodd" d="M161.734 120.465C173.892 120.337 190.104 117.769 207.402 106.789L214.196 121.939C202.264 133.78 185.486 143.51 170.816 143.098C159.255 142.773 153.347 128.789 161.734 120.465Z" fill="#2026A2"/>
<path fill-rule="evenodd" clip-rule="evenodd" d="M128.945 224.259C117.387 222.752 106.766 221.367 100.473 222.606C93.4113 199.673 99.2749 185.234 104.688 171.905C107.95 163.871 111.049 156.241 111.056 147.397C111.075 121.642 131.754 82 134.797 82H135.67H159.783H162.544C163.784 97.9374 169.079 115.193 174.407 132.56C175.652 136.615 176.898 140.677 178.095 144.729C198.26 149.307 243.036 133.373 243.036 133.373C243.036 133.373 254.34 156.759 253.487 166.717C227.424 180.331 205.087 186.401 186.683 186.802C187.268 197.721 185.939 208.112 181.474 217.606C175.491 230.327 150.576 227.079 128.945 224.259Z" fill="#1F28CF"/>
</svg>
