<svg width="313" height="444" viewBox="0 0 313 444" fill="none" xmlns="http://www.w3.org/2000/svg">
<path fill-rule="evenodd" clip-rule="evenodd" d="M162.476 78.3682C169.223 82.4334 175.853 84.3975 178.965 83.5957C186.768 81.5851 187.486 53.0497 181.448 41.8001C175.41 30.5506 144.37 25.6473 142.806 47.9362C142.263 55.672 145.512 62.5757 150.313 68.209L141.705 108.318H166.711L162.476 78.3682Z" fill="#57331F"/>
<path fill-rule="evenodd" clip-rule="evenodd" d="M163.726 50.3979C165.889 47.1785 167.966 44.7229 170.667 43.2969C181.661 43.4705 182.948 41.5005 182.948 34.8606C181.172 33.5905 174.907 31.4519 167.891 30.8503C164.312 29.8265 160.071 30.0191 155.987 31.7269C150.945 33.157 146.675 36.2367 144.789 42.0026C137.966 53.7725 143.145 66.0245 150.124 70.2099C151.982 68.0099 153.603 65.8778 155.049 63.8369C153.887 62.7022 153.166 61.1185 153.166 59.3665C153.166 55.9152 155.965 53.1174 159.418 53.1174C159.672 53.1174 159.922 53.1325 160.168 53.1619C160.323 57.4769 160.962 72.0757 162.642 77.1467C164.622 83.1251 176.176 84.593 180.206 84.593C183.686 84.593 183.568 81.2985 183.483 78.9374C183.47 78.5974 183.459 78.2767 183.459 77.988C183.459 77.3848 182.674 77.3864 181.787 77.3881C180.636 77.3904 179.313 77.3931 179.313 76.0724C179.313 74.6329 181.303 73.5287 183.084 72.5407C184.195 71.9242 185.224 71.3529 185.638 70.7737C186.944 68.9461 187.384 66.4811 185.414 66.4811C184.337 66.4811 182.859 67.1018 181.081 67.8486C178.397 68.976 175.029 70.3906 171.323 70.3906C165.2 70.3906 163.744 50.6443 163.726 50.3979Z" fill="#191847"/>
<path fill-rule="evenodd" clip-rule="evenodd" d="M139.621 194.764L190.761 324.148L225.061 433.531H238.605L186.168 194.764L139.621 194.764Z" fill="#3D2216"/>
<path fill-rule="evenodd" clip-rule="evenodd" d="M129.323 194.764C128.778 240.23 120.836 301.443 119.567 304.278C118.298 307.112 31.9624 376.36 31.9624 376.36L41.2912 386.339C41.2912 386.339 143.16 326.967 147.874 319.048C152.588 311.13 167.935 238.261 180.256 194.764H129.323Z" fill="#57331F"/>
<path fill-rule="evenodd" clip-rule="evenodd" d="M33.438 374.405C33.1125 373.281 31.929 372.611 30.8284 373.011C28.7368 373.772 25.6133 375.026 24.2401 376.178C22.081 377.989 18.5426 382.182 18.5426 382.182C20.6442 384.686 56.3177 427.182 56.3177 427.182C56.3177 427.182 63.5915 424.07 60.8816 419.903C58.1717 415.736 56.4461 412.924 56.4461 412.924L48.205 384.143C48.0499 383.601 47.4781 383.295 46.9409 383.465L42.5088 384.87C42.5088 384.87 37.939 382.741 36.1028 380.554C34.9685 379.202 34.0072 376.372 33.438 374.405Z" fill="#E4E4E4"/>
<path fill-rule="evenodd" clip-rule="evenodd" d="M222.319 427.281C221.249 426.807 219.976 427.283 219.575 428.383C218.813 430.473 217.767 433.672 217.767 435.464C217.767 438.281 218.706 443.686 218.706 443.686C221.975 443.686 277.473 443.686 277.473 443.686C277.473 443.686 279.764 436.116 274.829 435.512C269.893 434.909 266.629 434.422 266.629 434.422L239.274 422.233C238.76 422.003 238.158 422.244 237.943 422.765L236.171 427.062C236.171 427.062 231.602 429.193 228.745 429.193C226.98 429.193 224.192 428.109 222.319 427.281Z" fill="#E4E4E4"/>
<path fill-rule="evenodd" clip-rule="evenodd" d="M174.005 422.265L238.402 415.279L190.676 194.764H132.998L174.005 422.265Z" fill="#69A1AC"/>
<path fill-rule="evenodd" clip-rule="evenodd" d="M45.2827 360.261L87.5232 410.239C87.5232 410.239 154.26 337.38 165.338 315.159C176.417 292.937 185.257 194.764 185.257 194.764H120.322C120.322 194.764 115.493 281.132 113.812 285.151C112.131 289.17 45.2827 360.261 45.2827 360.261Z" fill="#89C5CC"/>
<path fill-rule="evenodd" clip-rule="evenodd" d="M68.141 241.536C71.1944 235.344 86.4499 155.654 86.4499 155.654L109.266 155.74C109.266 155.74 83.1999 240.156 81.5925 244.137C79.5045 249.31 83.0513 256.825 85.4562 261.921C85.8283 262.709 86.173 263.439 86.4654 264.094C83.1283 265.587 81.5253 263.783 79.8354 261.881C77.9266 259.732 75.9068 257.459 71.1522 259.67C69.3153 260.525 67.577 261.535 65.8788 262.521C60.0127 265.93 54.6237 269.061 47.2928 264.539C46.1306 263.822 44.857 261.123 47.9342 259.014C55.6006 253.76 66.6483 244.563 68.141 241.536ZM260.3 210.486L230.784 181.703L220.98 198.659L251.673 216.747C259.369 228.866 263.889 234.102 265.233 232.455C266.366 231.068 265.847 229.546 265.368 228.145C264.996 227.053 264.648 226.035 265.126 225.209C266.216 223.322 272.379 224.402 278.183 225.678C283.986 226.953 282.644 224.103 281.41 222.616C275.925 218.191 268.888 214.147 260.3 210.486Z" fill="#57331F"/>
<path fill-rule="evenodd" clip-rule="evenodd" d="M155.974 90.9577L164.984 89.4129C179.177 139.564 252.102 173.749 256.578 192.496C258.22 199.372 253.27 202.847 255.827 204.941L244.116 213.511C242.133 211.198 237.901 215.429 229.063 212.469C220.225 209.51 155.974 150.341 155.974 90.9577Z" fill="#191847"/>
<path fill-rule="evenodd" clip-rule="evenodd" d="M139.782 80.4756C137.579 80.3216 135.667 81.9832 135.513 84.1869L135.075 90.4534C118.118 103.497 76.093 142.472 65.1418 215.028C63.9914 222.65 66.0718 226.732 67.734 229.994C68.8711 232.225 69.8125 234.073 69.3903 236.406L84.7169 240.635C84.7169 238.912 86.6485 237.601 89.1406 235.91C92.7643 233.451 97.5729 230.188 99.3509 223.684C101.036 217.518 103.504 209.818 106.452 201.251C106.731 212.597 108.883 223.031 113.572 231.672C125.271 253.233 192.873 229.588 199.936 207.593C203.705 195.856 198.357 186.002 191.284 172.97C182.306 156.428 170.549 134.764 171.13 97.6249L171.892 86.7298C172.046 84.526 170.385 82.6147 168.181 82.4606L139.782 80.4756Z" fill="#2F3676"/>
</svg>
