<svg width="375" height="662" viewBox="0 0 375 662" fill="none" xmlns="http://www.w3.org/2000/svg">
<g opacity="0.504511">
<path fill-rule="evenodd" clip-rule="evenodd" d="M470.903 477.804C479.298 544.724 275.707 588.374 100.473 557.912C-74.7622 527.45 -155.152 408.491 -71.5325 345.106C12.0866 281.72 462.508 410.883 470.903 477.804Z" fill="#F2F2F2"/>
</g>
<path fill-rule="evenodd" clip-rule="evenodd" d="M219.052 198.943C222.22 196.363 227.134 198.007 230.323 199.531C231.552 200.118 234.692 201.997 237.021 204.111C236.713 202.646 236.439 201.167 236.199 199.677C235.214 193.548 234.535 187.303 234.209 181.095C234.124 179.475 234.234 177.666 234.346 175.833L234.347 175.831C234.385 175.211 234.423 174.588 234.453 173.968C234.326 173.822 234.24 173.62 234.204 173.346C234.19 173.459 234.183 173.55 234.177 173.62C234.167 173.733 234.162 173.79 234.145 173.794C234.128 173.798 234.099 173.75 234.04 173.655C234.017 173.617 233.99 173.573 233.957 173.521C231.601 169.764 229.622 165.53 229.35 160.875C229.119 156.928 232.162 149.459 236.474 154.629C238.403 156.938 237.902 173.155 235.005 174.149C235.779 179.523 236.752 184.888 237.971 190.184C238.154 190.15 238.34 190.147 238.525 190.174C238.507 188.857 238.505 187.42 238.556 186.926C238.99 182.67 242.325 174.028 247.634 175.706C251.713 176.995 249.213 182.303 247.824 184.626C245.59 188.366 243.062 189.986 239.86 191.931C239.796 192.734 239.31 193.202 238.736 193.354C240.88 201.907 243.696 210.25 247.382 218.13L247.48 217.628C247.948 215.237 248.493 212.448 248.839 211.863C250.645 208.797 254.645 205.053 258.332 206.867C266.077 210.681 257.67 221.645 251.077 222.838C250.803 223.242 250.513 223.567 250.204 223.753C251.485 226.132 252.854 228.461 254.32 230.73C256.517 234.143 258.878 237.545 261.354 240.928C261.43 238.282 262.41 232.385 262.688 231.752C264.379 227.904 269.252 223.945 273.205 226.679C277.652 229.76 273.62 235.584 271.084 238.219C270.045 239.3 264.903 243.259 263.089 243.277C269.071 251.253 275.673 259.093 282.385 266.649C281.829 263.266 281.103 253.951 281.184 252.917C281.6 247.58 284.889 239.045 291.369 241.124C297.655 243.139 294.874 252.006 292.723 256.233C291.419 258.791 289.617 261.391 287.443 263.175C287.052 263.496 286.54 263.759 286.029 264.021C285.413 264.337 284.799 264.652 284.397 265.069C284.039 265.441 283.929 265.868 283.82 266.292C283.705 266.739 283.591 267.183 283.187 267.553C286.815 271.618 290.467 275.599 294.068 279.47C295.767 281.297 297.497 283.088 299.244 284.857C300.199 284.434 301.562 284.99 301.491 286.434C301.481 286.643 301.435 286.824 301.374 286.99C302.698 288.303 304.03 289.607 305.373 290.897C305.342 290.522 305.351 289.992 305.413 289.26C304.446 290.726 304.486 288.59 304.517 286.962C304.528 286.387 304.538 285.875 304.501 285.607C304.359 284.561 304.176 283.525 303.992 282.491C303.6 280.28 303.209 278.078 303.229 275.797C303.271 270.956 306.146 262.841 312.195 265.724C317.758 268.369 315.734 275.544 313.636 280.043C312.307 282.889 310.49 285.431 308.59 287.864C308.251 288.298 307.875 288.886 307.503 289.469L307.503 289.469C306.95 290.333 306.406 291.185 306.003 291.502C311.168 296.44 316.454 301.233 321.741 306.026C324.109 308.173 326.477 310.32 328.835 312.48C328.937 312.006 329.022 311.535 329.095 311.096C328.948 311.273 328.747 311.356 328.49 311.34C328.421 310.977 328.322 310.494 328.203 309.914C326.747 302.834 322.313 281.269 334.319 285.448C343.115 288.519 336.906 307.297 330.346 313.865C334.327 317.533 338.27 321.247 342.122 325.072C344.909 327.84 347.613 330.702 350.215 333.66C348.868 329.83 347.6 324.872 348.433 320.926C349.645 315.183 355.324 309.761 360.87 313.029C367.782 317.12 362.464 322.707 357.477 327.947C354.931 330.622 352.47 333.207 351.769 335.455C360.039 345.158 367.099 355.938 371.817 368.217C376.948 381.571 381.711 399.514 379.077 414.454C379.563 407.885 377.483 399.636 376.022 393.844C375.823 393.055 375.636 392.312 375.468 391.624C373.273 382.64 370.154 373.899 366.045 365.717C359.463 352.613 350.768 341.489 340.73 331.389C338.444 332.239 335.962 333.812 333.906 335.116L333.905 335.116C332.644 335.915 331.544 336.612 330.747 336.979C326.907 338.747 319.532 341.281 317.086 335.712C314.68 330.236 320.821 327.174 324.626 325.947C328.304 324.762 331.62 324.905 335.051 325.876C329.737 320.85 324.295 315.983 318.853 311.117C317.852 310.222 316.851 309.327 315.851 308.431C314.468 309.641 312.94 311.39 311.318 313.248L311.318 313.248C306.169 319.143 300.069 326.126 294.622 320.421C286.401 311.81 302.124 303.058 308.823 303.741C309.645 303.825 310.441 304.01 311.216 304.261C304.385 298.074 297.66 291.759 291.299 285C290.158 285.222 288.341 287.014 286.158 289.167C281.252 294.006 274.498 300.667 269.411 295.422C265.739 291.636 266.997 285.74 270.546 282.368C274.11 278.982 279.276 278.988 283.667 280.128C285.566 280.619 287.317 281.555 288.949 282.696C288.984 282.698 289.019 282.7 289.052 282.702C289.077 282.704 289.102 282.705 289.126 282.707L289.152 282.708C282.893 275.987 276.596 269.115 270.531 262.008C270.425 262.044 270.317 262.082 270.208 262.12C269.841 262.599 269.227 262.774 268.665 262.668C268.355 262.782 268.038 262.898 267.715 263.017C262.911 264.787 256.736 267.061 251.948 266.08C248.424 265.358 245.226 262.301 248.209 258.537C250.634 255.476 257.214 255.916 260.423 256.641C261.989 256.995 263.694 258.022 265.404 259.051C266.123 259.484 266.842 259.917 267.553 260.302C267.738 259.904 268.06 259.649 268.427 259.527C262.437 252.385 256.723 244.997 251.539 237.287C249.97 237.546 248.23 238.282 246.436 239.04C242.117 240.865 237.482 242.824 234.156 238.606C229.245 232.376 238.481 228.74 242.871 229.332C244.353 229.532 245.815 229.98 247.226 230.572C243.454 224.225 240.574 217.44 238.55 210.315C238.53 210.326 238.512 210.336 238.494 210.347C238.466 210.364 238.437 210.381 238.402 210.398C238.432 210.38 238.459 210.362 238.486 210.344L238.486 210.343L238.487 210.343C238.507 210.329 238.526 210.316 238.547 210.303C238.345 209.59 238.151 208.874 237.966 208.156C237.624 207.952 237.303 207.802 237.15 207.74C239.144 209.208 230.729 209.926 229.153 210.06C225.669 210.357 221.002 210.468 218.446 207.422C216.299 204.864 216.424 201.084 219.052 198.943ZM379.451 414.475C379.303 416.64 378.936 418.622 378.252 420.257C378.765 418.396 379.159 416.461 379.451 414.475Z" fill="#F2F2F2"/>
<path opacity="0.2" fill-rule="evenodd" clip-rule="evenodd" d="M60.8605 60.6798C58.5487 58.815 54.9598 60.0062 52.6309 61.109C51.7336 61.5343 49.4402 62.894 47.739 64.4239C47.9642 63.3639 48.1652 62.2948 48.3407 61.2169C49.0622 56.7849 49.5599 52.269 49.8003 47.7795C49.863 46.6085 49.7828 45.3003 49.7015 43.9749L49.7014 43.9735C49.6739 43.5249 49.6463 43.0743 49.6241 42.6265C49.7173 42.5205 49.7801 42.3743 49.8067 42.1761C49.8164 42.2583 49.822 42.3241 49.8262 42.3745C49.8331 42.4565 49.8366 42.4974 49.8491 42.5004C49.8615 42.5034 49.883 42.4687 49.9258 42.3996C49.9425 42.3726 49.9624 42.3404 49.9864 42.3031C51.7084 39.585 53.1549 36.5227 53.355 33.157C53.5245 30.3025 51.3057 24.9029 48.1554 28.6433C46.7459 30.3138 47.1062 42.0402 49.2214 42.7577C48.6544 46.6437 47.942 50.5232 47.0499 54.3536C46.9165 54.3288 46.7805 54.3267 46.6459 54.3461C46.6591 53.394 46.661 52.3549 46.6242 51.9977C46.3086 48.9202 43.8768 42.673 40.0001 43.8883C37.0211 44.8222 38.8448 48.6591 39.8577 50.3384C41.4881 53.042 43.3333 54.2121 45.6701 55.6172C45.7166 56.1984 46.0714 56.5361 46.4904 56.6457C44.9223 62.8316 42.863 68.8652 40.1692 74.5647L40.0978 74.2027C39.757 72.4733 39.3596 70.4568 39.1074 70.0334C37.7896 67.8175 34.8709 65.1116 32.1779 66.4247C26.5216 69.1861 32.6559 77.1108 37.4699 77.9706C37.6698 78.2626 37.8815 78.4973 38.1066 78.6319C37.1704 80.3524 36.1699 82.0372 35.0993 83.6786C33.4939 86.1475 31.7685 88.6085 29.9598 91.0552C29.9049 89.1421 29.1915 84.8787 28.9888 84.4207C27.7557 81.6392 24.199 78.7785 21.3114 80.7565C18.0638 82.9866 21.0055 87.1959 22.8564 89.1005C23.6149 89.8814 27.3677 92.7427 28.6919 92.7549C24.3219 98.5246 19.4988 104.196 14.5952 109.662C15.0024 107.216 15.536 100.48 15.4771 99.7323C15.1748 95.8736 12.7763 89.7028 8.04447 91.2093C3.45377 92.6686 5.48123 99.0793 7.05096 102.135C8.00175 103.984 9.31679 105.863 10.9031 107.152C11.189 107.385 11.5625 107.574 11.9353 107.764C12.3849 107.992 12.8335 108.22 13.1267 108.521C13.3879 108.79 13.468 109.099 13.5474 109.405C13.6312 109.728 13.7143 110.049 14.0093 110.316C11.3593 113.258 8.69074 116.138 6.06041 118.938C4.81937 120.26 3.5558 121.556 2.27975 122.835C1.58211 122.53 0.586933 122.933 0.638255 123.976C0.645708 124.128 0.678821 124.259 0.723499 124.378C-0.243496 125.329 -1.21666 126.272 -2.19741 127.205C-2.17491 126.934 -2.18125 126.55 -2.22603 126.021C-1.52068 127.081 -1.54949 125.537 -1.57145 124.359C-1.57921 123.943 -1.58611 123.573 -1.55947 123.38C-1.45535 122.623 -1.32083 121.874 -1.18651 121.126L-1.18648 121.126C-0.89948 119.528 -0.613417 117.935 -0.62691 116.286C-0.656024 112.785 -2.75223 106.918 -7.17028 109.005C-11.2327 110.92 -9.75749 116.108 -8.2269 119.36C-7.25793 121.418 -5.9316 123.255 -4.54532 125.013C-4.2981 125.327 -4.0238 125.752 -3.7522 126.173C-3.349 126.798 -2.95176 127.414 -2.65794 127.643C-6.43058 131.215 -10.2919 134.683 -14.1535 138.151L-14.1539 138.151L-14.154 138.151C-15.8838 139.705 -17.6135 141.258 -19.3354 142.821C-19.4102 142.478 -19.472 142.138 -19.5251 141.82C-19.4175 141.949 -19.2711 142.008 -19.0832 141.997C-19.033 141.734 -18.9604 141.385 -18.8732 140.966L-18.8731 140.965C-17.8077 135.845 -14.5626 120.25 -23.3302 123.277C-29.7539 125.501 -25.227 139.076 -20.4391 143.823C-23.3473 146.477 -26.228 149.164 -29.0413 151.932C-31.077 153.934 -33.0527 156.005 -34.9532 158.145C-33.9689 155.375 -33.0411 151.789 -33.6476 148.936C-34.5306 144.784 -38.6756 140.865 -42.7256 143.231C-47.7743 146.192 -43.8932 150.23 -40.2537 154.016C-38.3954 155.95 -36.6 157.818 -36.0886 159.443C-42.1302 166.463 -47.289 174.261 -50.7379 183.142C-54.4888 192.8 -57.9727 205.776 -56.0545 216.578C-56.4074 211.828 -54.8857 205.863 -53.8171 201.674C-53.6715 201.103 -53.5344 200.566 -53.4116 200.069C-51.8058 193.571 -49.5259 187.249 -46.5227 181.331C-41.7121 171.853 -35.3599 163.806 -28.0273 156.499C-26.3587 157.113 -24.5466 158.249 -23.0458 159.191C-22.1253 159.768 -21.3219 160.272 -20.7406 160.537C-17.9369 161.814 -12.5535 163.643 -10.765 159.616C-9.00654 155.655 -13.4892 153.443 -16.2675 152.557C-18.9524 151.702 -21.3734 151.807 -23.8787 152.51C-19.9975 148.874 -16.0217 145.352 -12.0466 141.831C-11.3155 141.184 -10.5845 140.536 -9.85406 139.888C-8.84451 140.763 -7.7296 142.027 -6.54578 143.369C-2.7887 147.63 1.6624 152.677 5.64179 148.549C11.6471 142.32 0.170253 135.998 -4.7209 136.494C-5.32132 136.555 -5.90228 136.689 -6.46877 136.871C-1.47895 132.394 3.43379 127.826 8.08013 122.936C8.91366 123.096 10.2397 124.391 11.8327 125.947L11.8328 125.947C15.4131 129.444 20.3417 134.257 24.0577 130.463C26.7403 127.724 25.8242 123.461 23.2337 121.024C20.633 118.577 16.8608 118.583 13.6542 119.41C12.2681 119.765 10.9891 120.443 9.79667 121.269L9.72114 121.273L9.64865 121.278C14.2208 116.415 18.821 111.443 23.2519 106.302L23.3922 106.35L23.4878 106.382C23.7554 106.729 24.2036 106.856 24.6144 106.779C24.8405 106.86 25.0718 106.945 25.3076 107.031L25.3077 107.031C28.8148 108.308 33.3224 109.95 36.8187 109.239C39.3922 108.716 41.7278 106.504 39.5512 103.783C37.7815 101.571 32.9771 101.892 30.634 102.417C29.4906 102.674 28.2456 103.417 26.9964 104.162L26.9963 104.162L26.996 104.162C26.4713 104.475 25.9458 104.789 25.4267 105.067C25.2921 104.78 25.057 104.595 24.7891 104.507C29.1646 99.3404 33.3398 93.9956 37.1272 88.4188C38.2725 88.6058 39.5427 89.1368 40.8528 89.6846C44.0053 91.0026 47.3886 92.4172 49.8188 89.3654C53.4065 84.859 46.6646 82.2337 43.459 82.6633C42.3765 82.8081 41.3091 83.1329 40.2785 83.5617C43.0347 78.9705 45.1402 74.0635 46.6203 68.9103C46.6346 68.9179 46.6479 68.9258 46.6611 68.9336C46.6819 68.946 46.7028 68.9583 46.7283 68.9701C46.7061 68.9574 46.6865 68.9441 46.667 68.9308C46.6526 68.921 46.6382 68.9113 46.6228 68.9018C46.7705 68.3862 46.9122 67.8683 47.0472 67.3486C47.2977 67.2012 47.5317 67.0926 47.6438 67.0479C46.1869 68.1099 52.3308 68.6258 53.4815 68.7224C56.0253 68.9357 59.4331 69.014 61.3005 66.8106C62.8687 64.9598 62.7785 62.2268 60.8605 60.6798ZM-56.4355 216.152C-56.3231 217.594 -55.9893 218.911 -55.332 219.989C-55.8145 218.756 -56.1764 217.472 -56.4355 216.152Z" fill="#C1DEE2"/>
<g opacity="0.7">
<path fill-rule="evenodd" clip-rule="evenodd" d="M290.822 305.77C304.474 305.062 321.359 313.031 322.815 327.871C323.873 338.653 323.545 349.405 325.183 360.172C326.492 368.776 329.261 377.036 333.038 384.874C336.67 392.411 344.203 398.827 346.162 406.879C347.411 412.01 346.712 419.227 344.99 424.245C342.896 430.347 344.009 429.865 348.182 434.985C356.359 445.018 363.723 455.307 368.93 467.29C376.43 484.55 381.348 504.725 378.564 523.618C378.21 526.017 377.79 534.627 374.486 535.229C370.796 535.902 372.522 530.978 372.719 529.387C373.974 519.238 375.089 510.367 373.575 500.059C367.732 460.288 339.201 434.085 320.623 400.331C319.602 398.59 317.446 394.445 315.947 391.711C313.58 387.393 311.201 379.179 307.997 375.977C301.963 369.947 307.511 382.071 308.686 384.385C310.173 387.313 311.808 390.425 313.332 392.99C320.302 404.882 328.082 417.862 335.28 430.121C304.147 437.214 282.221 399.785 273.866 375.178C266.982 354.905 258.746 307.505 290.822 305.77" fill="#69A1AC"/>
<path fill-rule="evenodd" clip-rule="evenodd" d="M473.805 268.121C450.983 269.932 436.331 284.992 429.511 306.056C425.835 317.407 425.413 329.068 423.37 340.734C420.298 358.284 413.686 371.585 400.764 384.089C396.762 387.961 393.812 391.937 391.716 396.191C387.554 400.438 383.931 405.244 381.269 411.12C377.869 418.624 376.907 427.628 380.832 435.109C381.888 437.121 384.521 441.158 387.25 442.992C377.033 464.752 371.415 488.584 372.048 512.386C372.431 526.753 373.132 541.127 373.951 555.477C374.171 559.33 375.426 565.693 377.31 559.231C379.035 553.32 376.872 544.041 376.672 537.867C375.698 507.786 374.866 480.435 387.248 452.331C388.547 449.385 389.924 446.463 391.357 443.565C391.442 443.516 391.52 443.457 391.599 443.4C391.653 443.442 391.703 443.487 391.758 443.529C391.849 443.365 391.975 443.171 392.121 442.954C392.532 442.529 392.891 441.993 393.233 441.395C394.331 439.873 395.574 438.084 395.581 437.105C395.581 437.098 395.577 437.086 395.577 437.078C403.242 424.565 412.022 412.742 420.99 401.149C420.923 401.234 430.718 387.897 429.204 395.272C428.474 398.827 421.269 405.595 418.359 409.36C411.922 417.735 404.363 428.348 398.082 438.61C397.237 439.096 396.043 441.48 395.179 443.257C394.702 444.157 394.257 445.064 393.82 445.855C416.077 453.208 433.39 438.396 445.196 421.168C445.21 421.147 445.223 421.126 445.236 421.106C448.829 416.346 452.509 411.619 457.107 407.856C464.777 401.576 472.992 400.468 482.036 397.378C506.7 388.951 517.186 356.987 520.516 333.27C524.274 306.513 505.894 265.483 473.805 268.121" fill="#89C5CC"/>
<path fill-rule="evenodd" clip-rule="evenodd" d="M428.723 193.191C405.299 217.569 393.982 251.383 385.022 283.172C375.014 318.676 368.403 354.728 368.149 391.642C367.983 415.895 367.323 440.299 368.739 464.523C369.241 473.126 370.099 481.745 371.462 490.255C371.575 490.955 374.625 509.958 377.545 505.53C379.205 503.012 374.417 485.817 374.056 482.953C372.021 466.822 371.548 450.573 371.647 434.326C371.81 407.575 371.021 380.962 373.733 354.31C374.137 350.33 374.457 346.151 375.402 342.258C376.406 338.119 375.127 339.926 378.396 338.287C381.573 336.695 385.498 336.922 388.794 334.924C401.866 326.997 408.553 306.635 413.758 293.275C419.711 277.998 423.329 261.706 426.219 245.628C428.341 233.816 429.858 222.075 430.716 210.11C430.987 206.339 431.003 202.396 431.744 198.688C431.944 197.688 432.945 195.919 432.909 195.033C432.832 193.158 431.701 192.056 431.608 190.481C430.627 191.363 429.665 192.267 428.723 193.191" fill="#89C5CC"/>
<path fill-rule="evenodd" clip-rule="evenodd" d="M301 518C301 558.317 333.683 591 374 591C414.317 591 447 558.317 447 518" fill="#89C5CC"/>
</g>
<g opacity="0.5">
<path fill-rule="evenodd" clip-rule="evenodd" d="M45.223 172.445C49.4253 166.453 57.2236 151.235 63.1383 149.094C66.9479 147.715 65.8372 161.98 65.8842 164.7C66.0675 175.224 65.0429 185.681 63.7777 196.116C61.4983 214.937 54.0449 231.697 43.822 247.715C38.5615 255.957 32.3914 264.3 23.8455 269.442C19.9118 271.811 15.1785 272.207 11.2938 274.248C6.76938 276.623 9.23335 274.703 7.19437 279.417C4.3628 285.963 3.45711 294.408 2.14699 301.392C-3.86845 333.455 -18.4317 502.945 -15.907 535.558C-15.6828 538.449 -19.7135 539.14 -19.9147 535.611C-20.9842 516.9 -11.7296 387.322 -7.06044 344.947C-2.39131 302.571 2.33363 265.135 7.07133 250.474C12.8189 232.687 23.1992 211.298 31.8401 194.711C35.8538 187.006 40.2287 179.565 45.223 172.445Z" fill="#69A1AC"/>
<path fill-rule="evenodd" clip-rule="evenodd" d="M76.4141 380.278C87.3492 372.25 99.1855 387.401 89.2904 395.43C83.8202 399.868 78.1014 398.29 74.8819 394.591C72.7919 397.139 70.8357 399.803 68.9561 402.052C63.2294 408.909 57.8168 415.928 52.6439 423.111C41.898 438.035 32.689 453.801 23.0603 469.278C13.5581 484.554 4.13179 499.908 -4.48093 515.571C-11.7771 528.841 -21.502 544.452 -24 559C-20.2099 528.146 -5.82814 498.49 11.298 471.291C28.2848 444.314 47.7792 414.853 74.081 393.564C71.4041 389.627 71.3298 384.008 76.4141 380.278Z" fill="#C1DEE2"/>
<path fill-rule="evenodd" clip-rule="evenodd" d="M141.846 218.887C142.202 218.374 144.517 214.807 143.351 215.035C145.724 214.57 140.087 218.969 146 216.27C143.192 218.922 144.813 222.366 144.85 225.935C144.911 231.73 143.942 237.476 142.851 243.146C141.126 252.109 138.557 260.823 134.828 269.159C126.701 287.326 112.901 304.814 96.5183 316.172C88.4304 321.779 80.5039 323.689 71.2796 326.27C65.4532 327.901 64.9912 330.915 61.8985 336.569C55.4597 348.345 49.1357 360.078 43.4573 372.251C36.6769 386.788 30.0948 401.34 23.8859 416.132C2.96942 465.957 -14.0547 517.578 -22.9952 571C-23.2141 539.519 -15.9314 507.095 -6.74491 477.088C-0.0531282 455.226 8.65831 434.151 17.9499 413.29C20.2015 408.236 23.6135 401.735 24.5696 396.155C25.2391 392.245 23.1923 388.486 22.2551 384.367C18.6015 368.33 18.863 350.363 22.0714 334.24C25.6089 316.461 35.8392 308.209 53.1451 305.691C59.4742 304.769 67.5187 305.107 73.3222 302.408C79.645 299.47 82.2533 289.81 85.8486 283.61C95.5057 266.953 106.98 250.979 120.155 236.945C123.803 233.059 127.726 229.473 131.888 226.15C134.513 224.053 140.058 221.47 141.846 218.887Z" fill="#89C5CC"/>
<path fill-rule="evenodd" clip-rule="evenodd" d="M-57.155 542.729C-57.6003 539.71 -55.2604 537 -52.2085 537H9.20855C12.2604 537 14.6003 539.71 14.155 542.729L9.40806 574.918C7.96096 584.73 -0.459264 592 -10.3779 592H-32.6221C-42.5408 592 -50.961 584.73 -52.4081 574.918L-57.155 542.729Z" fill="#C1DEE2"/>
</g>
<path fill-rule="evenodd" clip-rule="evenodd" d="M490.633 123.827C487.65 113.876 480.646 106.087 473.374 98.9511C459.22 85.0582 451.607 76.4684 446.562 56.1457C443.595 44.1934 440.575 31.5277 431.165 22.8562C424.313 16.5414 412.521 11.2359 403.357 15.7577C389.261 24.1717 385.475 41.4386 386.897 56.9001C388.659 76.0635 397.61 87.8797 414.807 94.938C424.497 98.9133 430.938 104.159 436.198 113.299C440.405 120.607 442.858 129.759 448.145 136.384C456.05 146.289 465.941 150.691 478.134 149.046C466.714 128.035 453.371 106.826 437.278 89.1352C435.771 87.3567 426.886 80.5492 428.678 77.5181C430.652 74.1807 439.774 86.7176 439.709 86.6418C444.386 92.0103 448.714 97.7152 452.963 103.475C452.953 103.48 452.94 103.484 452.928 103.489C457.304 109.4 461.644 115.397 465.902 121.469C467.624 124.038 469.3 126.639 470.905 129.306C473.259 133.219 476.996 144.325 480.849 146.731C481.673 147.245 482.436 147.533 483.148 147.651C485.777 151.956 488.335 156.295 490.768 160.685C497.121 172.151 502.574 184.257 505.076 197.202C505.807 200.981 505.29 215.114 507.869 217.842C512.584 222.831 511.203 213.223 510.921 210.323C508.579 186.31 499.958 165.852 487.441 145.664C491.286 140.642 491.841 127.859 490.633 123.827" fill="#F2F2F2"/>
<path fill-rule="evenodd" clip-rule="evenodd" d="M329.131 135.43C334.102 129.573 346.052 128.579 353.361 128.971C362.404 129.456 371.694 131.658 380.298 134.32C394.471 138.704 408.244 146.706 420.727 154.451C422.231 155.384 440.764 166.529 439.124 168.485C437.498 170.423 419.305 157.184 415.25 154.902C406.597 150.032 398.662 144.272 389.124 141.055C379.249 137.724 368.805 136.405 358.42 136.496C357.087 136.508 352.74 135.579 352.646 137.551C352.554 139.479 359.748 138.473 361.016 138.485C366.255 138.533 371.527 139.026 376.691 139.934C386.368 141.635 395.465 145.061 403.753 150.317C401.44 155.694 395.897 158.173 390.081 156.828C385.055 155.664 380.156 152.796 375.234 151.966C371.845 151.395 368.451 151.735 365.164 152.69C356.494 155.209 351.494 160.371 341.961 156.781C334.489 153.966 321.991 143.853 329.131 135.43" fill="#F2F2F2"/>
<path fill-rule="evenodd" clip-rule="evenodd" d="M307.753 41.0513C296.714 40.2462 284.388 49.0557 279.063 58.2232C274.771 65.6147 275.494 75.3207 278.145 83.1734C279.921 88.4307 283.795 95.9263 290.257 95.9994C298.341 96.0908 298.73 86.2066 298.887 80.4283C299.095 72.7462 300.076 66.054 306.195 60.8177C306.95 60.1715 307.743 59.5664 308.536 58.9614C309.239 58.4243 309.943 57.8873 310.62 57.3217C310.728 57.2313 310.837 57.1408 310.946 57.0501C313.11 55.251 315.383 53.3615 315.659 50.3961C316.06 46.0986 313.608 45.3252 309.864 46.1236C309.743 46.1493 309.415 46.2724 308.969 46.4397C307.057 47.1566 302.977 48.6865 303.749 46.8577C304.039 46.1686 305.101 45.6225 306.441 45.2134C309.907 44.8405 314.042 44.4078 315.231 44.6663C328.058 47.4502 333.052 65.0278 334.379 76.1957C334.529 77.4603 334.649 78.7292 334.753 80H337.105C336.94 77.0154 336.726 74.0357 336.221 71.0845C334.331 60.0223 328.42 43.7749 315.455 41.9794C314.977 41.9125 313.217 41.9012 311.086 42.0249C310.076 41.4665 308.945 41.1289 307.753 41.0513Z" fill="#F2F2F2"/>
</svg>
